# xmcd CD database file
#
# Track frame offsets:
#	150
#	12714
#	24015
#	37669
#	53408
#	64781
#	83137
#	97140
#	112780
#	123400
#	137236
#	153902
#	166571
#	184494
#
# Disc length: 2607 seconds
#
# Revision: 0
# Processed by: cddbd v1.5.2PL0 Copyright (c) Steve Scherf et al.
# Submitted via: CDex 1.51
#
DISCID=a40a2d0e
DTITLE=Big Noyd - The Stick Up Kid
DYEAR=2006
DGENRE=Hip Hop
TTITLE0=Infamous Team feat. Prodigy, Godfather
TTITLE1=Number 1
TTITLE2=Don't Play With Them Burners feat. Havoc
TTITLE3=Money Roll feat. Prodigy, Illah G, Twin, Godfather
TTITLE4=That's How You Get Dead feat. Twin
TTITLE5=Stick Up Kid
TTITLE6=You Already Know feat. Flame Killah, Godfather
TTITLE7=Crazy Ass Chick
TTITLE8=It's On
TTITLE9=It's Going Down
TTITLE10=My Rhyme
TTITLE11=You Can Say Whatever You Want
TTITLE12=You Better Take It Easy
TTITLE13=World's Famous feat. Ty Nitty Chinkey, The Infamous Team
EXTD=YEAR: 2006
EXTT0=
EXTT1=
EXTT2=
EXTT3=
EXTT4=
EXTT5=
EXTT6=
EXTT7=
EXTT8=
EXTT9=
EXTT10=
EXTT11=
EXTT12=
EXTT13=
PLAYORDER=
